<svg width="99" height="101" viewBox="0 0 99 101" fill="none" xmlns="http://www.w3.org/2000/svg">
<circle cx="72" cy="38" r="12" stroke="#7FFFFF" stroke-width="2"/>
<path d="M6 94.5V61H15.5V94.5H6Z" fill="#7FFFFF" stroke="#7FFFFF" stroke-width="2"/>
<path d="M20 88.4999V67.4999C26 63.0999 35.1667 61 39 60.5H66C71.6 64.9 68.3333 68.6667 66 70H65H40V73H65C70.2 71.8 72.1667 68.1667 72.5 66.5L83 62C85.8 54.8 88.1667 51.3333 89 50.4999C92.6 47.6999 93.5 50.3333 93.5 51.9999C91.9 79.5999 68.5 87.8333 57 88.4999H20Z" stroke="#7FFFFF" stroke-width="2"/>
<path d="M25.3405 50C11.4963 45.9229 20.3677 27.1606 26.534 18.2892H47.4196C49.3291 19.6482 49.8065 21.498 49.8065 22.253H44.4359V50H25.3405Z" stroke="#7FFFFF" stroke-width="2"/>
<path d="M21.7601 5.83133L27.1307 14.8916H47.4196L51 5.83133C46.2261 8.5494 43.4414 5.07631 42.6457 3C38.3493 9.34217 34.4904 5.64257 33.098 3C29.7563 8.43614 24.147 7.15261 21.7601 5.83133Z" stroke="#7FFFFF" stroke-width="2"/>
<path d="M39 29.5V31.5H33V33H35.5C38.3 33 39 33.6667 39 34V37.5C39 39.9 37 40.5 36 40.5V42H33V40.5C30.6 40.5 30 39.1667 30 38.5V37.5H36V36H32.5C30.5 36 30 34.3333 30 33.5V30.5C30 28.9 31 28.5 31.5 28.5H33V27H36V28.5C38.4 28.5 39 29.1667 39 29.5Z" stroke="#7FFFFF"/>
<path d="M77 33.5V35.5H71V37H73.5C76.3 37 77 37.6667 77 38V41.5C77 43.9 75 44.5 74 44.5V46H71V44.5C68.6 44.5 68 43.1667 68 42.5V41.5H74V40H70.5C68.5 40 68 38.3333 68 37.5V34.5C68 32.9 69 32.5 69.5 32.5H71V31H74V32.5C76.4 32.5 77 33.1667 77 33.5Z" stroke="#7FFFFF"/>
<path d="M49 50V28H59.5V50H49Z" stroke="#7FFFFF" stroke-width="2"/>
<circle cx="54" cy="32" r="1" fill="#7FFFFF"/>
<circle cx="54" cy="46" r="1" fill="#7FFFFF"/>
<path d="M59.5 34.5L49 42.5V45.5L59.5 37.5V34.5Z" stroke="#7FFFFF" stroke-width="2"/>
</svg>
