<svg width="89" height="60" viewBox="0 0 89 60" fill="none" xmlns="http://www.w3.org/2000/svg">
<path d="M67 3.50004C64.6 0.300041 62.6667 1.83337 62 3.00004V10.5V11H67V3.50004Z" stroke="#7FFFFF" stroke-width="2" stroke-linejoin="round"/>
<path d="M59.5 3.49995C58.3 -0.100047 55.3333 1.99995 54 3.49995C56 4.29995 57.1667 8.83329 57.5 11L60.5 11L59.5 3.49995Z" stroke="#7FFFFF" stroke-width="2" stroke-linejoin="round"/>
<path d="M1 57V44.5H8V57H1Z" stroke="#7FFFFF" stroke-width="2" stroke-linejoin="round"/>
<path d="M11 56V46.5L15 46C17.8 42.3999 19.5 36.4999 20 34C24 33.2 22 41.6666 20.5 46H28.5C31.3 46 29.6667 48.3333 28.5 49.5C30.9 50.7 29.5 52.6666 28.5 53.5C31.3 53.1 29.6667 55 28.5 56C31.7 57.6 30.5 58.6666 29.5 59H18C15.6 57.4 12.3333 56.3333 11 56Z" stroke="#7FFFFF" stroke-width="2" stroke-linejoin="round"/>
<path d="M63 49.5C65.4 46.7 68.3333 44.6666 69.5 44C75.9 42 77.5 45.1666 77.5 47V55.5C76.1667 55.5 72.2 55.8 67 57C64.3333 56 57.7 53.4 52.5 51C51.8333 50.8333 49.6 50.6 46 51C45 50.3333 43.6 48.7 46 47.5C48.4 46.3 58.3333 48.3333 63 49.5ZM63 49.5C62.1667 51.1667 61.8 54.2 67 53L70 50.5M88 57.5V44.5H81V57.5H88Z" stroke="#7FFFFF" stroke-width="2" stroke-linejoin="round"/>
<path d="M63 47C55 46.1667 42.7 39.4 57.5 19H72C76.3333 24.6667 83.1 37.5 75.5 43.5M57.5 11.5L57.5 16H71.5V11.5H57.5Z" stroke="#7FFFFF" stroke-width="2" stroke-linejoin="round"/>
<path d="M75 2.90667L71.5 11L68 11L69.5 2.90667C71.9 -0.54649 74.1667 1.46785 75 2.90667Z" stroke="#7FFFFF" stroke-width="2" stroke-linejoin="round"/>
<path d="M70 27.5V29.5H64V31H66.5C69.3 31 70 31.6667 70 32V35.5C70 37.9 68 38.5 67 38.5V40H64V38.5C61.6 38.5 61 37.1667 61 36.5V35.5H67V34H63.5C61.5 34 61 32.3333 61 31.5V28.5C61 26.9 62 26.5 62.5 26.5H64V25H67V26.5C69.4 26.5 70 27.1667 70 27.5Z" stroke="#7FFFFF"/>
</svg>
