<svg width="14" height="16" viewBox="0 0 14 16" fill="none" xmlns="http://www.w3.org/2000/svg">
<path fill-rule="evenodd" clip-rule="evenodd" d="M14 1.648V16C13.6794 15.7167 13.4262 15.4934 13.2175 15.3094C12.8137 14.9534 12.5768 14.7445 12.3422 14.533C12.0091 14.2328 11.6807 13.9273 10.8861 13.1882C10.7111 13.0254 10.5134 12.8415 10.288 12.632L10.712 14.112H1.64C0.736 14.112 0 13.376 0 12.464V1.648C0 0.736 0.736 0 1.64 0H12.36C13.264 0 14 0.736 14 1.648ZM4.736 7.6C4.736 7.112 5.096 6.712 5.552 6.712C6.008 6.712 6.376 7.112 6.368 7.6C6.368 8.088 6.008 8.488 5.552 8.488C5.104 8.488 4.736 8.088 4.736 7.6ZM8.472 8.488C8.928 8.488 9.288 8.088 9.288 7.6C9.288 7.112 8.928 6.712 8.472 6.712C8.016 6.712 7.656 7.112 7.656 7.6C7.656 8.088 8.024 8.488 8.472 8.488ZM10.568 4.568C10.568 4.568 11.72 6.656 11.72 9.232C11.72 9.232 11.04 10.392 9.272 10.448C9.272 10.448 8.984 10.104 8.744 9.8C9.792 9.504 10.192 8.848 10.192 8.848C9.864 9.064 9.552 9.216 9.272 9.32C7.54838 10.0439 5.63031 9.79619 4.28 9.04C4.27606 9.03737 4.2617 9.02912 4.24052 9.01695C4.17423 8.97887 4.04119 8.90243 3.952 8.84C3.952 8.84 4.336 9.48 5.352 9.784C5.112 10.088 4.816 10.448 4.816 10.448C3.048 10.392 2.376 9.232 2.376 9.232C2.376 6.656 3.528 4.568 3.528 4.568C4.68 3.704 5.776 3.728 5.776 3.728L5.856 3.824C4.416 4.24 3.752 4.872 3.752 4.872C3.752 4.872 3.928 4.776 4.224 4.64C6.06738 3.83028 8.29966 3.83047 10.2 4.872C10.2 4.872 9.568 4.272 8.208 3.856L8.32 3.728C8.32 3.728 9.416 3.704 10.568 4.568Z" fill="white"/>
</svg>
