<svg width="17" height="16" viewBox="0 0 17 16" fill="none" xmlns="http://www.w3.org/2000/svg">
<path fill-rule="evenodd" clip-rule="evenodd" d="M1.84476 3.64446C2.49579 3.64565 3.098 3.29942 3.42454 2.7362C3.75107 2.17298 3.75232 1.47833 3.42781 0.913942C3.1033 0.34955 2.50234 0.00115751 1.85131 6.09246e-06C1.20028 -0.0011832 0.598067 0.345046 0.271532 0.908268C-0.0550028 1.47149 -0.0562516 2.16613 0.268256 2.73053C0.592764 3.29492 1.19373 3.64331 1.84476 3.64446ZM0 15.9408L0.0196903 5.00749L3.66415 5.01404L3.64446 15.9474L0 15.9408ZM9.1287 6.37193C9.60034 5.74314 10.5302 5.02732 12.3201 5.03062C15.5089 5.03649 16.6709 7.77196 16.6708 7.77196L16.6276 16L12.5276 15.9924L12.5407 8.90325C12.5432 7.53657 11.1765 7.53405 11.1765 7.53405C9.95137 7.53179 9.38719 8.05754 9.12468 8.54433L9.11101 15.958L5.46655 15.9513L5.48672 5.01801L9.13118 5.02473L9.1287 6.37193Z" fill="white"/>
</svg>
