<svg width="18" height="14" viewBox="0 0 18 14" fill="none" xmlns="http://www.w3.org/2000/svg">
<path d="M16.2031 1.81697L17.5714 0.502241V0.214294H12.8326L9.45536 8.66072L5.61384 0.214294H0.645088V0.502241L2.2433 2.43528C2.39955 2.57813 2.47991 2.78796 2.45982 2.99778V10.5938C2.50893 10.8683 2.42187 11.1473 2.22991 11.346L0.42857 13.5402V13.8237H5.53125V13.5357L3.73214 11.3482C3.53675 11.1498 3.44512 10.8717 3.48437 10.596V4.02456L7.96428 13.8281H8.48437L12.3371 4.02456V11.8348C12.3371 12.0402 12.3371 12.0826 12.2031 12.2188L10.817 13.5647V13.8527H17.5402V13.5647L16.2031 12.25C16.0871 12.1607 16.0268 12.0112 16.0513 11.8661V2.2009C16.0278 2.05478 16.086 1.90749 16.2031 1.81697V1.81697Z" fill="white"/>
</svg>
